# xmcd
#
# Track frame offsets: 
#        150
#        11712
#        30057
#        48190
#        65621
#        79442
#        90398
#
# Disc length: 1439 seconds
#
# Revision: 0
# Processed by: cddbd v1.5.2PL0 Copyright (c) Steve Scherf et al.
# Submitted via: ExactAudioCopyFreeDBPlugin 1.0
#
DISCID=48059d07
DTITLE=Pete Yorn - You and Me acoustic – Live From Seattle, 7-28-06
DYEAR=2006
DGENRE=Rock
TTITLE0=Intro
TTITLE1=Baby I'm Gone
TTITLE2=Knew Enough To Know Nothing At All
TTITLE3=Bandstand In The Sky
TTITLE4=The Good Advice
TTITLE5=Vampyre
TTITLE6=The Man
EXTD=
EXTT0=
EXTT1=
EXTT2=
EXTT3=
EXTT4=
EXTT5=
EXTT6=
PLAYORDER=
